<svg id="canvas" height="auto" xmlns="http://www.w3.org/2000/svg" version="1.1" xmlns:xlink="http://www.w3.org/1999/xlink" viewBox="0 0 900 512" width="auto" style="width: auto; height: auto;"><defs><linearGradient gradientTransform="matrix(6.123233995736766e-17,1,-1,6.123233995736766e-17,0,0)" id="SvgjsLinearGradient1440"><stop stop-color="#000000ff" offset="0"/><stop stop-color="#000000ff" offset="1"/></linearGradient><linearGradient gradientTransform="matrix(-0.25881904510252085,0.9659258262890683,-0.9659258262890683,-0.25881904510252085,0,0)" id="SvgjsLinearGradient1441"><stop stop-color="#ffffffff" offset="0"/><stop stop-color="#ffffffff" offset="1"/></linearGradient><linearGradient gradientTransform="matrix(-0.25881904510252085,0.9659258262890683,-0.9659258262890683,-0.25881904510252085,0,0)" id="SvgjsLinearGradient1442"><stop stop-color="#999999ff" offset="0"/><stop stop-color="#ffffffff" offset="1"/></linearGradient></defs><rect width="900" height="512" fill="url(#SvgjsLinearGradient1440)"/><g transform="matrix(0.5316294560747561,0,0,0.5316294560747561,-139.57442208972267,129.19065513527943)"><path d="M291 448.5L369.5 2L2 448.5H291Z" fill="url(#SvgjsLinearGradient1441)" transform="matrix(1,0,0,1,-300,273.8300036785093)"/><path d="M290.5 448L370 2.5L708.5 448H290.5Z" fill="url(#SvgjsLinearGradient1442)" transform="matrix(1,0,0,1,-300,273.8300036785093)"/></g><g transform="matrix(0.2501775996586444,0,0,0.2501775996586444,1.4996448006827112,301.3689495723052)"><path d="M291 448.5L369.5 2L2 448.5H291Z" fill="url(#SvgjsLinearGradient1441)" transform="matrix(1,0,0,1,0,399.9204353529273)"/><path d="M290.5 448L370 2.5L708.5 448H290.5Z" fill="url(#SvgjsLinearGradient1442)" transform="matrix(1,0,0,1,0,399.9204353529273)"/></g><g transform="matrix(0.8,0,0,0.8,60.39999999999998,31.120001220703116)"><path d="M291 448.5L369.5 2L2 448.5H291Z" fill="url(#SvgjsLinearGradient1441)" transform="matrix(1,0,0,1,300,153.59999999999997)"/><path d="M290.5 448L370 2.5L708.5 448H290.5Z" fill="url(#SvgjsLinearGradient1442)" transform="matrix(1,0,0,1,300,153.59999999999997)"/></g><g transform="matrix(0.5351803500279585,0,0,0.5351803500279585,279.821429283169,127.47176745465873)"><path d="M291 448.5L369.5 2L2 448.5H291Z" fill="url(#SvgjsLinearGradient1441)" transform="matrix(1,0,0,1,600,272.2392031874746)"/><path d="M290.5 448L370 2.5L708.5 448H290.5Z" fill="url(#SvgjsLinearGradient1442)" transform="matrix(1,0,0,1,600,272.2392031874746)"/></g></svg>