<svg id="canvas" height="auto" xmlns="http://www.w3.org/2000/svg" version="1.1" xmlns:xlink="http://www.w3.org/1999/xlink" viewBox="0 0 900 512" width="auto" style="width: auto; height: auto;"><defs><linearGradient gradientTransform="matrix(6.123233995736766e-17,1,-1,6.123233995736766e-17,0,0)" id="SvgjsLinearGradient1389"><stop stop-color="#ffffffff" offset="0"/><stop stop-color="#999999ff" offset="1"/></linearGradient><linearGradient gradientTransform="matrix(-0.25881904510252085,0.9659258262890683,-0.9659258262890683,-0.25881904510252085,0,0)" id="SvgjsLinearGradient1390"><stop stop-color="#333333ff" offset="0"/><stop stop-color="#000000ff" offset="1"/></linearGradient><linearGradient gradientTransform="matrix(-0.25881904510252085,0.9659258262890683,-0.9659258262890683,-0.25881904510252085,0,0)" id="SvgjsLinearGradient1391"><stop stop-color="#000000ff" offset="0"/><stop stop-color="#000000ff" offset="1"/></linearGradient></defs><rect width="900" height="512" fill="url(#SvgjsLinearGradient1389)"/><g transform="matrix(0.5648035269480941,0,0,0.5648035269480941,-129.68854896946794,113.57236082934779)"><path d="M291 448.5L369.5 2L2 448.5H291Z" fill="url(#SvgjsLinearGradient1390)" transform="matrix(1,0,0,1,-300,258.96801992725386)"/><path d="M290.5 448L370 2.5L708.5 448H290.5Z" fill="url(#SvgjsLinearGradient1391)" transform="matrix(1,0,0,1,-300,258.96801992725386)"/></g><g transform="matrix(0.2,0,0,0.2,1.6,339.5199951171875)"><path d="M291 448.5L369.5 2L2 448.5H291Z" fill="url(#SvgjsLinearGradient1390)" transform="matrix(1,0,0,1,0,422.4)"/><path d="M290.5 448L370 2.5L708.5 448H290.5Z" fill="url(#SvgjsLinearGradient1391)" transform="matrix(1,0,0,1,0,422.4)"/></g><g transform="matrix(0.2,0,0,0.2,241.6,339.5199951171875)"><path d="M291 448.5L369.5 2L2 448.5H291Z" fill="url(#SvgjsLinearGradient1390)" transform="matrix(1,0,0,1,300,422.4)"/><path d="M290.5 448L370 2.5L708.5 448H290.5Z" fill="url(#SvgjsLinearGradient1391)" transform="matrix(1,0,0,1,300,422.4)"/></g><g transform="matrix(0.6019148306183054,0,0,0.6019148306183054,239.6472719677801,97.26899137915507)"><path d="M291 448.5L369.5 2L2 448.5H291Z" fill="url(#SvgjsLinearGradient1390)" transform="matrix(1,0,0,1,600,242.34215588299918)"/><path d="M290.5 448L370 2.5L708.5 448H290.5Z" fill="url(#SvgjsLinearGradient1391)" transform="matrix(1,0,0,1,600,242.34215588299918)"/></g></svg>