<svg viewBox="0 0 800 800" width="100%" height="100%" preserveAspectRatio="xMidYMid meet" xmlns="http://www.w3.org/2000/svg"><defs><linearGradient x1="50%" y1="0%" x2="50%" y2="100%" id="ccchaos-grad"><stop stop-color="hsl(272, 99%, 54%)" stop-opacity="1" offset="0%"></stop><stop stop-color="hsl(0, 0%, 85%)" stop-opacity="1" offset="100%"></stop></linearGradient></defs><g stroke-width="2" stroke="url(#ccchaos-grad)" fill="none" stroke-linecap="round"><path d="M401.38 103.91C411.67 99.51 422.13 96.02 432.77 93.78 443.42 92.56 454.26 93.07 465.24 95.32 476.25 98.82 487.41 103.85 498.63 110.12 509.83 116.97 521.04 124.42 532.14 132.13 543.06 139.47 553.72 146.52 563.92 153.1 573.7 158.72 582.8 163.73 591 168.17 601.69 173.28 615.83 181.82 619.14 186.36 620.62 191.5 620.92 206.02 621.9 215.63 624.17 222.8 627.69 230.72 632.76 239.3 639.8 248.28 648.44 257.8 658.48 267.7 669.75 277.89 681.48 288.34 692.95 298.94 703.72 309.7 712.75 320.52 719.31 331.3 723.33 342.16 724.06 352.93 721.43 363.54 716.27 374.17 708.55 384.6 699.04 394.78 689.31 404.95 679.96 414.59 671.87 423.69 666.07 432.77 662.56 441.29 661.42 449.27 662.93 457.25 666.21 464.71 670.62 471.69 676.05 478.76 681.18 485.47 685.31 491.92 688.48 498.64 689.59 505.33 688.43 512.12 685.36 519.49 679.92 527.26 672.37 535.6 663.29 544.8 652.72 554.78 641.14 565.62 629.03 577.36 616.63 589.89 604.31 603.05 592.35 616.61 580.88 630.29 570.02 643.66 559.92 656.36 550.47 667.88 541.62 677.66 533.47 685.58 525.72 691.05 518.23 693.77 511.2 694.22 504.2 692.04 497.1 687.54 490.21 681.9 483.05 675.18 475.54 668.2 468.09 662.47 460.21 658.16 451.88 656.02 443.53 657.04 434.72 660.93 425.44 667.59 416.15 676.97 406.4 687.92 396.24 699.39 386.08 710.63 375.77 719.84 365.37 726.12 354.99 729.43 344.56 728.85 334.14 724.49 323.79 717.11 313.49 706.89 303.31 694.69 293.27 681.62 283.41 668.31 273.83 655.6 264.44 644.34 255.4 634.79 246.79 627.21 238.44 621.98 230.58 618.67 223.27 616.96 216.23 616.98 209.75 617.77 203.84 618.83 195.48 620.77 180.97 619.47 174.38 614.92 169.76 610.4 165.2 604.43 160.63 597.14 155.59 588.99 150.48 579.79 145.31 569.78 139.74 559.23 134.21 548.15 128.84 536.77 123.36 525.15 118.29 513.43 113.77 501.75 109.53 490 106.09 478.4 103.55 467 101.51 455.63 100.44 444.48 100.32 433.62 100.6 422.78 101.64 412.2 103.35 401.92 105.02 391.64 107.01 381.87 109.15 372.6 110.86 363.31 112.59 354.49 114.29 346.11 115.49 337.67 116.77 329.64 118.19 321.96 119.39 314.15 120.98 306.62 123.07 299.3 125.34 291.73 128.33 284.24 132.1 276.76 136.32 268.87 141.39 260.85 147.26 252.63 153.59 243.9 160.63 234.89 168.27 225.6 176.15 215.84 184.45 205.88 193.06 195.79 201.64 185.56 210.36 175.48 219.15 165.76 227.72 156.42 236.29 147.82 244.83 140.22 253.08 133.5 261.32 128.05 269.58 124.01 277.57 120.97 285.64 119.26 293.83 118.79 301.83 118.82 310.02 119.59 318.43 120.8 326.73 121.57 335.31 122.12 344.19 122.18 353.01 121.04 362.18 119.09 371.7 116.36 381.2 112.5 391.09 108.23 401.37 103.92" stroke-dasharray="2 3" transform="rotate(0, 400, 400)" opacity="0.31"></path><path d="M407.35 114.94C417.39 110.57 427.58 107.06 437.9 104.73 448.23 103.34 458.68 103.59 469.22 105.5 479.75 108.62 490.33 113.25 500.88 119.13 511.36 125.66 521.71 132.9 531.81 140.51 541.69 147.9 551.15 155.14 560.05 162.03 568.51 168.09 576.2 173.6 582.96 178.56 591.63 184.43 602.54 193.82 604.97 198.27 606.3 202.9 608.24 215.32 610.79 223.49 614.17 229.56 618.82 236.36 624.89 243.81 632.7 251.63 641.84 260.02 652.04 268.86 663.14 277.98 674.39 287.44 685.13 297.13 695.01 306.99 703.1 316.99 708.78 327.03 712.08 337.15 712.34 347.25 709.52 357.25 704.44 367.28 697.04 377.16 688 386.84 678.77 396.52 669.83 405.74 661.97 414.5 656.14 423.25 652.34 431.55 650.68 439.41 651.48 447.3 653.98 454.82 657.65 462.02 662.47 469.36 667.24 476.51 671.33 483.57 674.79 490.97 676.57 498.49 676.39 506.26 674.58 514.61 670.58 523.43 664.56 532.83 657.03 542.98 647.9 553.83 637.57 565.36 626.51 577.53 614.88 590.21 603.02 603.2 591.24 616.24 579.69 629.05 568.53 641.21 557.91 652.44 547.82 662.27 538.25 670.24 529.29 676.37 520.76 680.14 512.57 681.38 504.83 680.67 497.25 677.71 489.7 672.85 482.41 667.26 475 660.96 467.39 654.71 459.88 649.84 452.06 646.45 443.92 645.15 435.78 646.8 427.27 651.05 418.37 657.78 409.47 666.92 400.18 677.43 390.53 688.36 380.88 699.08 371.11 707.94 361.29 714.15 351.5 717.69 341.69 717.67 331.92 714.14 322.23 707.77 312.63 698.62 303.2 687.42 293.89 675.17 284.82 662.37 276.05 649.82 267.47 638.3 259.26 628.11 251.48 619.58 243.94 613.11 236.86 608.42 230.3 605.32 221.02 603.81 205.01 605.09 198.04 605.58 191.16 604.89 177.62 596.6 170.57 588.72 165.4 582.29 160.15 574.77 154.86 566.35 149.22 557.37 143.65 547.73 138.29 537.62 132.88 527.2 127.9 516.51 123.51 505.7 119.44 494.78 116.16 483.85 113.8 473.02 111.94 462.18 111.02 451.48 111.04 440.99 111.44 430.5 112.59 420.23 114.38 410.21 116.13 400.19 118.18 390.62 120.38 381.51 122.15 372.37 123.91 363.64 125.63 355.29 126.84 346.87 128.09 338.76 129.44 330.93 130.53 322.94 131.94 315.13 133.79 307.44 135.76 299.48 138.39 291.52 141.73 283.5 145.48 275.1 150.04 266.54 155.4 257.76 161.2 248.56 167.75 239.13 174.93 229.5 182.41 219.56 190.38 209.54 198.72 199.55 207.13 189.59 215.76 179.95 224.52 170.83 233.15 162.2 241.82 154.42 250.5 147.71 258.95 141.89 267.39 137.32 275.84 134.09 284.04 131.74 292.3 130.6 300.62 130.53 308.76 130.81 317.04 131.67 325.48 132.83 333.8 133.47 342.35 133.83 351.16 133.66 359.89 132.32 368.93 130.22 378.29 127.38 387.62 123.48 397.3 119.23 407.34 114.95" stroke-dasharray="3 11" transform="rotate(3.884615384615385, 400, 400)" opacity="0.53"></path><path d="M412.46 125.97C422.23 121.64 432.08 118.13 442 115.71 451.92 114.18 461.88 114.17 471.84 115.75 481.77 118.48 491.65 122.69 501.38 128.15 511 134.33 520.37 141.28 529.39 148.72 538.15 156.08 546.41 163.43 554.02 170.54 561.21 176.98 567.61 182.94 573.11 188.4 580.1 195.07 588.73 205.65 590.78 210.31 592.42 214.75 596.54 225.74 600.69 232.76 605.14 237.9 610.78 243.71 617.69 250.14 626.07 256.87 635.51 264.17 645.71 271.96 656.49 280 667.15 288.44 677.11 297.18 686.08 306.08 693.25 315.2 698.1 324.44 700.73 333.76 700.56 343.14 697.59 352.51 692.62 361.9 685.54 371.23 676.97 380.44 668.23 389.66 659.69 398.52 652.08 407.04 646.26 415.55 642.22 423.74 640.09 431.63 640.24 439.57 641.99 447.29 644.92 454.84 649.08 462.57 653.4 470.26 657.31 478.02 660.89 486.11 663.13 494.44 663.74 503.11 663 512.3 660.3 521.97 655.71 532.19 649.68 542.97 642.04 554.31 633.08 566.14 623.24 578.32 612.62 590.74 601.53 603.15 590.27 615.32 578.97 626.95 567.85 637.66 557.03 647.29 546.59 655.37 536.55 661.57 527 666.02 517.85 668.26 509.05 668.24 500.66 666.6 492.5 663.1 484.48 658.09 476.74 652.71 468.99 646.95 461.17 641.47 453.48 637.47 445.62 634.97 437.54 634.46 429.5 636.67 421.19 641.23 412.59 647.98 403.99 656.87 395.1 666.94 385.92 677.34 376.75 687.53 367.52 696.05 358.29 702.15 349.08 705.88 339.91 706.36 330.83 703.61 321.82 698.2 312.95 690.11 304.29 679.94 295.74 668.57 287.46 656.42 279.5 644.18 271.71 632.62 264.29 622.02 257.3 612.75 250.48 605.24 244.11 599.31 238.2 594.9 229.75 591.39 214.87 589.9 208.16 589.94 201.36 589.61 187.55 583.93 180.27 578.02 174.95 573.09 169.57 567.1 164.18 560.19 158.49 552.76 152.92 544.57 147.59 535.8 142.28 526.69 137.44 517.18 133.21 507.4 129.32 497.46 126.24 487.38 124.06 477.27 122.39 467.11 121.64 456.99 121.79 446.96 122.31 436.94 123.55 427.04 125.41 417.3 127.24 407.56 129.34 398.2 131.58 389.2 133.4 380.18 135.21 371.48 136.96 363.07 138.2 354.58 139.45 346.32 140.75 338.25 141.76 330.01 143.03 321.86 144.67 313.76 146.37 305.4 148.66 296.98 151.6 288.46 154.88 279.62 158.93 270.61 163.75 261.42 169.01 251.92 175.01 242.26 181.66 232.5 188.67 222.59 196.21 212.74 204.18 203.07 212.3 193.59 220.71 184.55 229.32 176.17 237.89 168.37 246.56 161.5 255.28 155.72 263.84 150.79 272.42 147.08 281.01 144.6 289.4 142.88 297.82 142.22 306.28 142.47 314.58 142.93 322.97 143.82 331.47 144.88 339.86 145.36 348.43 145.49 357.19 145.09 365.89 143.56 374.83 141.3 384.03 138.36 393.2 134.45 402.67 130.21 412.45 125.97" stroke-dasharray="1 3" transform="rotate(7.76923076923077, 400, 400)" opacity="0.37"></path><path d="M416.1 137C425.56 132.72 435.03 129.21 444.47 126.73 453.91 125.05 463.3 124.81 472.59 126.06 481.83 128.41 490.91 132.18 499.75 137.21 508.45 142.98 516.82 149.6 524.74 156.79 532.4 164.04 539.51 171.39 545.94 178.65 552.01 185.37 557.31 191.72 561.79 197.63 567.53 205.11 574.83 217.11 576.98 222.19 579.27 226.75 585.92 237 591.62 243.2 597.02 247.63 603.5 252.63 611.06 258.2 619.82 263.98 629.37 270.32 639.4 277.14 649.73 284.17 659.72 291.63 668.85 299.44 676.91 307.4 683.19 315.64 687.26 324.08 689.28 332.59 688.74 341.25 685.66 349.99 680.8 358.75 674.05 367.54 665.94 376.33 657.67 385.12 649.55 393.69 642.19 402.03 636.41 410.39 632.18 418.55 629.65 426.55 629.19 434.63 630.24 442.61 632.45 450.57 635.93 458.72 639.72 466.95 643.34 475.35 646.88 484.07 649.4 493.08 650.6 502.46 650.72 512.26 649.14 522.5 645.83 533.19 641.23 544.26 635.04 555.7 627.49 567.4 619 579.2 609.56 590.97 599.47 602.46 589 613.46 578.28 623.7 567.51 632.82 556.84 640.78 546.35 647.15 536.14 651.66 526.26 654.59 516.71 655.52 507.47 654.47 498.59 652.15 489.95 648.32 481.51 643.36 473.33 638.33 465.24 633.19 457.18 628.52 449.26 625.38 441.28 623.73 433.2 623.94 425.18 626.65 416.99 631.45 408.62 638.19 400.27 646.82 391.71 656.43 382.96 666.31 374.22 676 365.5 684.16 356.84 690.14 348.2 694.02 339.65 694.94 331.26 692.9 322.91 688.4 314.75 681.33 306.84 672.2 299.01 661.77 291.48 650.37 284.29 638.62 277.21 627.21 270.51 616.43 264.21 606.65 258.02 598.3 252.23 591.32 246.85 585.72 239.03 580.26 224.88 575.56 218.28 574.71 211.41 574.17 197.2 569.92 189.66 565.45 184.21 561.7 178.72 557.01 173.25 551.42 167.54 545.39 162.01 538.58 156.77 531.11 151.59 523.32 146.91 515.02 142.87 506.33 139.2 497.46 136.34 488.33 134.35 479.03 132.87 469.66 132.28 460.21 132.56 450.74 133.2 441.26 134.53 431.79 136.44 422.37 138.33 412.95 140.48 403.8 142.75 394.91 144.63 385.99 146.49 377.3 148.28 368.8 149.56 360.23 150.82 351.79 152.1 343.45 153.06 334.96 154.23 326.5 155.7 318.01 157.16 309.31 159.14 300.52 161.7 291.62 164.55 282.47 168.11 273.18 172.38 263.77 177.08 254.17 182.49 244.5 188.57 234.85 195.02 225.2 202.05 215.73 209.55 206.59 217.27 197.76 225.34 189.49 233.68 181.97 242.06 175.08 250.6 169.15 259.24 164.3 267.8 160.25 276.41 157.33 285.04 155.53 293.54 154.37 302.07 154.1 310.62 154.58 319.04 155.14 327.53 155.99 336.08 156.92 344.54 157.2 353.12 157.1 361.84 156.47 370.5 154.74 379.35 152.34 388.38 149.32 397.4 145.4 406.64 141.19 416.09 137" stroke-dasharray="5 9" transform="rotate(11.653846153846155, 400, 400)" opacity="0.66"></path><path d="M417.87 148.02C426.97 143.81 435.99 140.32 444.9 137.78 453.8 135.98 462.56 135.51 471.13 136.44 479.64 138.41 487.9 141.75 495.83 146.32 503.63 151.65 511.02 157.88 517.91 164.76 524.58 171.8 530.67 179.08 536.1 186.38 541.25 193.29 545.7 199.94 549.44 206.24 554.36 214.46 561.25 228 563.89 233.68 567.11 238.62 576.42 248.77 583.55 254.5 589.75 258.45 596.89 262.88 604.91 267.79 613.86 272.82 623.34 278.35 633.04 284.36 642.82 290.51 652.07 297.1 660.34 304.07 667.51 311.16 672.94 318.57 676.28 326.26 677.74 334.01 676.88 341.98 673.72 350.13 669 358.28 662.57 366.58 654.91 374.99 647.11 383.39 639.39 391.71 632.3 399.92 626.59 408.16 622.22 416.33 619.35 424.47 618.35 432.69 618.74 440.94 620.25 449.28 623.03 457.78 626.24 466.47 629.47 475.37 632.84 484.55 635.47 494.03 637.05 503.86 637.84 513.98 637.17 524.45 634.99 535.23 631.67 546.21 626.85 557.37 620.7 568.56 613.6 579.63 605.45 590.43 596.51 600.71 587.07 610.35 577.18 619.05 567.04 626.53 556.83 632.84 546.62 637.58 536.53 640.56 526.62 642.17 516.92 642.02 507.48 640.18 498.3 637.41 489.35 633.46 480.62 628.72 472.1 624.16 463.73 619.71 455.46 615.87 447.33 613.58 439.23 612.71 431.12 613.59 423.08 616.73 414.97 621.73 406.79 628.42 398.63 636.75 390.36 645.92 382 655.28 373.63 664.47 365.38 672.27 357.25 678.12 349.14 682.1 341.18 683.41 333.41 682.01 325.69 678.37 318.19 672.29 310.96 664.18 303.79 654.74 296.92 644.17 290.4 633.04 283.94 621.96 277.84 611.21 272.1 601.15 266.42 592.2 261.08 584.38 256.08 577.75 248.68 570.49 234.9 562.38 228.25 560.31 221.22 559.08 206.5 555.11 198.71 551.53 193.15 548.63 187.58 544.91 182.07 540.39 176.4 535.53 170.95 529.91 165.82 523.61 160.82 517.04 156.35 509.89 152.53 502.27 149.09 494.48 146.45 486.31 144.68 477.87 143.39 469.35 142.96 460.62 143.37 451.75 144.11 442.87 145.51 433.88 147.48 424.82 149.41 415.76 151.59 406.85 153.9 398.08 155.83 389.3 157.74 380.64 159.57 372.07 160.91 363.45 162.2 354.87 163.49 346.32 164.42 337.65 165.52 328.95 166.85 320.19 168.13 311.27 169.84 302.25 172.06 293.14 174.5 283.87 177.59 274.51 181.34 265.1 185.47 255.62 190.29 246.18 195.76 236.87 201.61 227.69 208.05 218.82 215 210.38 222.21 202.34 229.83 194.96 237.77 188.37 245.82 182.43 254.1 177.45 262.52 173.5 270.95 170.28 279.46 168.08 288.03 166.88 296.52 166.16 305.06 166.2 313.62 166.84 322.08 167.42 330.59 168.18 339.14 168.93 347.62 168.99 356.18 168.65 364.82 167.78 373.42 165.87 382.13 163.34 390.97 160.25 399.79 156.32 408.76 152.16 417.86 148.03" stroke-dasharray="2 9" transform="rotate(15.53846153846154, 400, 400)" opacity="0.76"></path><path d="M417.54 159.05C426.24 154.91 434.78 151.45 443.13 148.87 451.46 146.95 459.57 146.27 467.42 146.9 475.2 148.49 482.66 151.4 489.74 155.5 496.7 160.37 503.21 166.16 509.21 172.66 515.04 179.43 520.3 186.53 524.96 193.77 529.43 200.77 533.3 207.62 536.59 214.21 541.13 223.08 548.4 238.13 551.81 244.53 556.12 250.03 568.06 260.66 576.41 266.25 583.25 269.97 590.85 274.05 599.12 278.52 608.07 283.02 617.32 287.96 626.57 293.34 635.7 298.79 644.17 304.66 651.57 310.94 657.87 317.27 662.49 323.98 665.15 331.01 666.12 338.08 664.97 345.43 661.77 353.04 657.2 360.66 651.1 368.51 643.88 376.57 636.53 384.63 629.22 392.72 622.42 400.82 616.81 408.94 612.34 417.12 609.18 425.36 607.71 433.68 607.49 442.13 608.33 450.73 610.43 459.47 613.03 468.44 615.79 477.64 618.87 487.04 621.44 496.72 623.23 506.67 624.48 516.79 624.53 527.15 623.27 537.66 621.07 548.19 617.5 558.71 612.66 569.06 606.92 579.11 600.1 588.69 592.41 597.58 584.14 605.74 575.27 612.86 566 618.72 556.51 623.47 546.85 626.72 537.16 628.38 527.52 628.89 517.97 627.9 508.57 625.53 499.34 622.52 490.29 618.65 481.43 614.26 472.74 610.27 464.21 606.56 455.82 603.55 447.55 602.06 439.37 601.94 431.26 603.4 423.21 606.91 415.18 612.05 407.17 618.65 399.17 626.68 391.16 635.4 383.14 644.25 375.11 652.95 367.27 660.39 359.62 666.08 351.97 670.12 344.54 671.77 337.33 670.96 330.15 668.11 323.22 662.97 316.58 655.87 309.97 647.43 303.66 637.76 297.68 627.35 291.72 616.77 286.08 606.24 280.77 596.13 275.44 586.82 270.41 578.39 265.65 570.94 260.8 564.71 256.16 559.49 251.69 555.16 244.73 550.62 230.64 544.83 223.31 542.48 218.06 541.08 212.74 539.26 207.39 536.93 201.76 534.5 196.16 531.41 190.66 527.65 185.07 523.67 179.74 518.99 174.78 513.67 170 508.13 165.76 502 162.18 495.35 159 488.55 156.6 481.31 155.04 473.69 153.95 466 153.67 458.01 154.2 449.77 155.04 441.5 156.5 433.02 158.51 424.36 160.48 415.71 162.69 407.07 165.03 398.49 167 389.89 168.95 381.31 170.83 372.75 172.23 364.15 173.57 355.52 174.88 346.86 175.83 338.13 176.88 329.32 178.12 320.45 179.25 311.48 180.74 302.43 182.67 293.32 184.75 284.14 187.4 274.94 190.66 265.77 194.24 256.65 198.47 247.66 203.32 238.91 208.53 230.39 214.34 222.27 220.67 214.68 227.3 207.55 234.36 201.11 241.79 195.5 249.39 190.51 257.27 186.44 265.35 183.35 273.49 180.87 281.76 179.3 290.13 178.6 298.48 178.24 306.9 178.49 315.34 179.19 323.75 179.73 332.18 180.36 340.64 180.88 349.06 180.71 357.52 180.12 366.01 179.02 374.48 176.94 383.02 174.29 391.6 171.14 400.18 167.23 408.83 163.12 417.53 159.06" stroke-dasharray="9 9" transform="rotate(19.423076923076923, 400, 400)" opacity="0.36"></path><path d="M415.16 170.08C423.42 166.02 431.45 162.6 439.23 159.99 446.99 157.97 454.47 157.1 461.63 157.45 468.73 158.68 475.47 161.15 481.8 164.77 488.03 169.16 493.81 174.48 499.1 180.54 504.26 186.96 508.92 193.8 513.06 200.88 517.1 207.85 520.66 214.78 523.77 221.56 526.91 227.91 529.73 233.97 532.33 239.73 536.6 247.4 546.42 260.73 552.71 266.75 557.87 270.4 563.66 274.13 570.11 278.01 577.39 281.71 585.26 285.67 593.59 289.92 602.37 294.13 611.24 298.7 619.93 303.64 628.34 308.6 635.98 313.94 642.53 319.68 647.98 325.44 651.84 331.57 653.89 338.06 654.41 344.56 653.03 351.39 649.81 358.54 645.41 365.69 639.64 373.15 632.85 380.89 625.95 388.64 619.03 396.5 612.53 404.47 607.05 412.46 602.54 420.59 599.14 428.85 597.25 437.18 596.48 445.69 596.71 454.39 598.13 463.19 600.1 472.22 602.35 481.47 605.03 490.83 607.42 500.41 609.25 510.16 610.77 519.96 611.32 529.86 610.8 539.76 609.51 549.53 607.03 559.12 603.37 568.37 598.91 577.19 593.39 585.41 586.97 592.82 579.93 599.47 572.21 605.04 563.97 609.37 555.41 612.71 546.54 614.68 537.5 615.25 528.39 614.9 519.24 613.32 510.15 610.64 501.12 607.59 492.19 603.96 483.42 600.05 474.75 596.69 466.22 593.75 457.85 591.56 449.56 590.83 441.39 591.38 433.34 593.37 425.33 597.18 417.41 602.41 409.56 608.88 401.74 616.59 393.96 624.88 386.25 633.23 378.53 641.44 371.05 648.51 363.81 654.02 356.57 658.1 349.58 660.04 342.85 659.75 336.12 657.62 329.66 653.37 323.49 647.25 317.32 639.8 311.44 631.08 305.86 621.49 300.27 611.54 294.95 601.42 289.91 591.45 284.81 582.02 279.95 573.21 275.29 565.16 270.5 558.12 265.85 551.95 261.32 546.61 254.2 540.43 239.6 531.85 231.99 528.55 226.59 526.72 221.15 524.68 215.71 522.32 210.05 520.01 204.46 517.22 199.04 513.9 193.58 510.47 188.42 506.45 183.68 501.85 179.14 497.11 175.16 491.8 171.85 485.97 168.94 480.02 166.79 473.59 165.45 466.73 164.55 459.81 164.43 452.52 165.06 444.89 165.99 437.23 167.51 429.28 169.54 421.06 171.53 412.83 173.77 404.54 176.12 396.2 178.13 387.85 180.13 379.45 182.06 370.99 183.53 362.52 184.93 353.97 186.28 345.36 187.26 336.71 188.31 327.98 189.49 319.19 190.51 310.37 191.84 301.49 193.52 292.61 195.29 283.75 197.56 274.93 200.36 266.23 203.42 257.67 207.08 249.33 211.33 241.32 215.9 233.61 221.06 226.38 226.73 219.73 232.7 213.56 239.14 208.1 245.97 203.45 253.01 199.38 260.37 196.17 267.97 193.84 275.69 192.01 283.59 190.97 291.62 190.66 299.68 190.55 307.84 190.91 316.04 191.61 324.25 192.05 332.49 192.49 340.75 192.77 348.99 192.35 357.26 191.51 365.52 190.18 373.79 187.94 382.06 185.19 390.34 181.99 398.61 178.11 406.89 174.07 415.15 170.08" stroke-dasharray="7 10" transform="rotate(23.30769230769231, 400, 400)" opacity="0.78"></path><path d="M411.01 181.11C418.8 177.15 426.32 173.77 433.54 171.15 440.75 169.05 447.64 168 454.19 168.08 460.69 168.96 466.81 171.01 472.53 174.16 478.17 178.05 483.4 182.87 488.18 188.45 492.89 194.45 497.17 200.94 501.03 207.77 504.87 214.59 508.36 221.49 511.54 228.34 514.84 234.88 517.97 241.23 521.01 247.35 524.37 252.99 527.84 258.38 531.52 263.52 535.76 268.21 540.38 272.72 545.47 277.13 551.28 281.17 557.63 285.2 564.51 289.3 572.04 293.17 579.97 297.19 588.18 301.43 596.64 305.56 605.01 309.96 613.04 314.68 620.68 319.34 627.5 324.36 633.2 329.72 637.85 335.08 641.01 340.8 642.49 346.87 642.63 352.93 641.07 359.36 637.86 366.12 633.63 372.89 628.18 379.99 621.82 387.45 615.35 394.9 608.84 402.53 602.64 410.32 597.31 418.13 592.79 426.12 589.22 434.29 586.97 442.51 585.72 450.92 585.37 459.52 586.15 468.17 587.51 477.03 589.2 486.04 591.43 495.1 593.52 504.28 595.25 513.53 596.85 522.72 597.72 531.88 597.71 540.89 597.15 549.66 595.55 558.12 592.92 566.09 589.6 573.57 585.29 580.36 580.09 586.28 574.29 591.47 567.76 595.61 560.64 598.58 553.14 600.7 545.23 601.61 537.03 601.33 528.67 600.38 520.15 598.43 511.59 595.67 503 592.77 494.44 589.51 485.95 586.17 477.51 583.49 469.17 581.31 460.95 579.91 452.8 579.89 444.76 581.05 436.85 583.48 428.98 587.53 421.22 592.8 413.57 599.12 405.94 606.5 398.4 614.34 390.97 622.2 383.53 629.94 376.37 636.65 369.48 641.96 362.58 646.04 355.95 648.2 349.59 648.37 343.22 646.91 337.12 643.48 331.3 638.3 325.46 631.84 319.88 624.08 314.57 615.37 309.21 606.17 304.08 596.6 299.19 586.97 294.19 577.64 289.37 568.69 284.7 560.28 279.87 552.66 275.14 545.74 270.47 539.55 265.57 534.24 260.68 529.57 255.78 525.44 250.6 522.02 245.38 518.93 240.14 516.02 234.63 513.55 229.12 511.05 223.65 508.39 218.02 505.91 212.52 503.11 207.22 499.92 201.95 496.74 197.02 493.09 192.52 488.95 188.27 484.74 184.58 480.02 181.56 474.81 178.93 469.52 177.03 463.75 175.9 457.55 175.19 451.29 175.22 444.62 175.96 437.56 176.96 430.49 178.52 423.05 180.57 415.29 182.58 407.52 184.82 399.61 187.18 391.59 189.23 383.57 191.26 375.44 193.24 367.22 194.78 359 196.25 350.68 197.66 342.29 198.69 333.89 199.76 325.42 200.92 316.92 201.89 308.45 203.09 299.97 204.58 291.53 206.09 283.19 208.03 274.96 210.44 266.93 213.03 259.1 216.17 251.57 219.84 244.44 223.79 237.65 228.29 231.37 233.3 225.71 238.59 220.51 244.35 216.01 250.52 212.28 256.91 209.06 263.66 206.61 270.68 204.94 277.86 203.65 285.25 203.02 292.81 202.98 300.45 203.03 308.21 203.43 316.04 204.04 323.91 204.33 331.83 204.55 339.77 204.57 347.72 203.89 355.69 202.81 363.63 201.26 371.59 198.88 379.53 196.04 387.43 192.82 395.34 188.98 403.2 185.01 411 181.11" stroke-dasharray="3 9" transform="rotate(27.19230769230769, 400, 400)" opacity="0.58"></path><path d="M405.56 192.13C412.87 188.28 419.89 184.96 426.6 182.34 433.3 180.18 439.67 178.98 445.69 178.8 451.69 179.36 457.32 181 462.57 183.68 467.79 187.07 472.64 191.36 477.11 196.43 481.56 201.95 485.68 208.03 489.47 214.5 493.32 221.07 496.93 227.82 500.36 234.62 503.97 241.23 507.52 247.74 511.1 254.09 515.03 260.07 519.14 265.85 523.51 271.41 528.4 276.56 533.67 281.54 539.35 286.38 545.64 290.87 552.35 295.29 559.47 299.71 567.05 303.87 574.87 308.12 582.78 312.49 590.78 316.71 598.56 321.12 605.87 325.78 612.71 330.35 618.7 335.21 623.58 340.37 628.74 348.21 629.93 365.54 625.9 375.05 621.86 381.5 616.74 388.3 610.79 395.47 604.74 402.63 598.63 410 592.74 417.55 587.59 425.11 583.1 432.87 579.41 440.81 576.87 448.76 575.2 456.9 574.34 465.19 574.52 473.5 575.26 481.94 576.39 490.47 578.1 498.98 579.81 507.51 581.32 515.99 582.86 524.35 583.86 532.54 584.18 540.46 584.13 548.09 583.22 555.28 581.43 561.9 579.08 568.03 575.83 573.41 571.75 577.93 567.13 581.77 561.77 584.64 555.78 586.46 549.41 587.59 542.55 587.69 535.31 586.82 527.85 585.49 520.15 583.41 512.29 580.75 504.35 578.14 496.34 575.36 488.33 572.67 480.31 570.7 472.34 569.27 464.45 568.61 456.58 569.24 448.81 570.92 441.14 573.74 433.51 577.96 425.98 583.22 418.58 589.36 411.18 596.4 403.9 603.79 396.74 611.17 389.58 618.44 382.7 624.78 376.11 629.89 369.49 633.93 363.15 636.28 357.08 636.85 350.98 635.97 345.14 633.31 339.56 629.02 333.93 623.51 328.54 616.73 323.38 608.94 318.14 600.56 313.09 591.68 308.22 582.56 303.23 573.52 298.37 564.65 293.62 556.13 288.69 548.16 283.82 540.74 278.98 533.89 273.92 527.79 268.86 522.26 263.78 517.25 258.46 512.9 253.11 508.94 247.76 505.25 242.21 502.02 236.69 498.89 231.25 495.75 225.73 492.86 220.37 489.8 215.25 486.5 207.89 481.52 195.73 469.69 191.31 462.71 188.15 455.25 185.98 438.12 186.89 428.51 187.96 421.96 189.55 415.02 191.6 407.73 193.62 400.43 195.86 392.95 198.21 385.33 200.29 377.72 202.36 369.96 204.37 362.11 205.99 354.26 207.53 346.32 209.01 338.32 210.12 330.34 211.23 322.32 212.41 314.31 213.35 306.36 214.48 298.46 215.83 290.67 217.15 283.02 218.83 275.55 220.89 268.34 223.08 261.36 225.75 254.74 228.89 248.57 232.26 242.74 236.14 237.44 240.49 232.76 245.1 228.5 250.17 224.9 255.64 222.01 261.35 219.53 267.41 217.73 273.78 216.6 280.32 215.73 287.1 215.4 294.09 215.53 301.18 215.64 308.42 215.98 315.77 216.45 323.17 216.54 330.65 216.51 338.16 216.25 345.7 215.32 353.26 214 360.8 212.26 368.35 209.75 375.88 206.84 383.35 203.6 390.83 199.82 398.24 195.94 405.55 192.14" stroke-dasharray="10 8" transform="rotate(31.07692307692308, 400, 400)" opacity="0.28"></path><path d="M399.47 203.16C406.29 199.42 412.84 196.17 419.09 193.57 428.29 190.69 445.09 190.5 452.67 193.35 457.61 196.23 462.24 200 466.58 204.53 470.94 209.53 475.06 215.12 478.96 221.16 482.96 227.39 486.83 233.87 490.61 240.49 494.62 247.03 498.65 253.56 502.78 260.02 507.27 266.21 511.96 272.26 516.92 278.14 522.35 283.69 528.1 289.07 534.2 294.32 540.77 299.24 547.66 304.07 554.81 308.85 562.25 313.38 569.79 317.93 577.28 322.54 584.71 326.97 591.81 331.53 598.36 336.27 604.39 340.89 609.56 345.73 613.68 350.82 617.84 358.5 617.96 375.26 613.95 384.41 610.1 390.61 605.3 397.14 599.76 404.02 594.13 410.89 588.4 417.96 582.83 425.2 577.88 432.44 573.46 439.85 569.7 447.41 566.93 454.97 564.9 462.67 563.59 470.46 563.22 478.24 563.39 486.07 563.97 493.9 565.14 501.66 566.41 509.35 567.6 516.88 568.94 524.24 569.92 531.33 570.39 538.06 570.44 547.42 566.32 562.52 562.03 567.82 556.33 571.42 541.13 573.38 532.01 571.93 525.54 570.45 518.76 568.43 511.74 566.03 504.59 563.84 497.29 561.63 489.91 559.6 482.49 558.34 475.04 557.63 467.61 557.66 460.18 558.86 452.79 561 445.49 564.12 438.19 568.46 430.98 573.67 423.88 579.6 416.78 586.28 409.78 593.24 402.9 600.15 396.02 606.95 389.4 612.93 383.05 617.81 376.69 621.79 370.58 624.27 364.72 625.18 358.82 624.83 353.16 622.86 347.72 619.39 342.22 614.8 336.93 608.97 331.81 602.12 326.61 594.64 321.56 586.53 316.65 578.05 311.6 569.49 306.65 560.92 301.77 552.5 296.72 544.43 291.69 536.74 286.69 529.48 281.49 522.79 276.28 516.59 271.07 510.85 265.66 505.7 260.25 500.92 254.86 496.46 249.34 492.46 243.88 488.64 238.55 484.91 233.19 481.47 228.05 477.99 223.18 474.38 216.26 469.09 205.08 457.32 201.14 450.64 198.39 443.6 196.79 427.61 197.85 418.66 198.98 412.56 200.59 406.09 202.63 399.26 204.64 392.43 206.87 385.42 209.21 378.27 211.3 371.12 213.4 363.84 215.45 356.46 217.13 349.11 218.75 341.68 220.3 334.22 221.49 326.8 222.68 319.39 223.89 312.02 224.85 304.75 225.95 297.58 227.22 290.58 228.41 283.74 229.88 277.14 231.67 270.84 234.67 261.96 242.98 246.89 248.37 240.95 254.52 236.16 269.17 230.1 277.52 228.74 283.36 228.17 289.48 228.02 295.81 228.21 302.27 228.29 308.9 228.51 315.66 228.78 322.5 228.64 329.43 228.34 336.42 227.8 343.45 226.62 350.51 225.08 357.57 223.16 364.64 220.55 371.7 217.59 378.69 214.35 385.7 210.64 392.63 206.86 399.46 203.17" stroke-dasharray="1 6" transform="rotate(34.96153846153846, 400, 400)" opacity="0.13"></path><path d="M393.43 214.19C399.79 210.57 405.89 207.41 411.73 204.83 420.35 201.87 436.23 200.96 443.51 203.19 448.29 205.58 452.85 208.81 457.18 212.79 461.58 217.24 465.82 222.29 469.93 227.84 474.17 233.62 478.36 239.73 482.55 246.06 486.97 252.4 491.47 258.82 496.1 265.24 501.06 271.5 506.24 277.68 511.65 283.75 517.45 289.57 523.51 295.27 529.84 300.84 536.5 306.14 543.37 311.34 550.36 316.47 557.51 321.36 564.62 326.24 571.56 331.12 578.34 335.84 584.7 340.62 590.47 345.51 595.71 350.28 600.1 355.2 603.48 360.31 606.74 367.97 605.96 384.41 602 393.27 598.36 399.25 593.88 405.53 588.72 412.1 583.5 418.67 578.16 425.39 572.91 432.24 568.19 439.09 563.87 446.06 560.09 453.12 557.15 460.17 554.83 467.28 553.13 474.42 552.27 481.52 551.91 488.59 551.95 495.57 552.58 502.45 553.37 509.17 554.17 515.65 555.63 524.91 556.84 540.94 556.05 547.34 550.48 555.42 534.54 558.62 526.94 556.88 521.48 555.44 515.64 553.65 509.52 551.64 503.25 549.95 496.76 548.35 490.12 547.01 483.41 546.43 476.6 546.4 469.75 547.05 462.88 548.75 456 551.27 449.14 554.63 442.28 559.03 435.47 564.14 428.72 569.83 421.98 576.16 415.3 582.68 408.72 589.12 402.13 595.47 395.77 601.09 389.65 605.73 380.56 610.9 363.39 612.81 355.25 609.43 349.84 605.69 344.58 600.78 339.46 594.88 334.25 588.31 329.16 581.06 324.16 573.33 319.04 565.39 313.98 557.28 308.97 549.17 303.8 541.24 298.65 533.52 293.52 526.08 288.22 519.06 282.93 512.4 277.65 506.13 272.22 500.34 266.82 494.89 261.48 489.76 256.06 485.04 250.75 480.54 245.61 476.2 240.49 472.16 235.61 468.17 231.05 464.15 224.64 458.35 214.51 446.14 211.04 439.52 208.71 432.66 207.66 417.44 208.85 409.02 210.02 403.3 211.64 397.25 213.66 390.88 215.66 384.52 217.86 377.99 220.18 371.35 222.27 364.71 224.38 357.97 226.47 351.17 228.21 344.4 229.9 337.59 231.53 330.78 232.81 324.04 234.08 317.34 235.35 310.74 236.37 304.25 237.47 297.9 238.71 291.77 240.49 282.97 245.33 267.31 248.59 260.7 252.39 254.99 262.21 246.6 268.22 243.97 274.85 242.16 289.98 240.83 298.33 240.94 304.1 240.92 310.06 240.96 316.18 240.99 322.38 240.6 328.7 240.02 335.1 239.21 341.55 237.79 348.05 236.05 354.56 233.97 361.1 231.27 367.63 228.28 374.12 225.07 380.63 221.44 387.07 217.76 393.42 214.19" stroke-dasharray="5 3" transform="rotate(38.84615384615385, 400, 400)" opacity="0.51"></path><path d="M388.17 225.22C394.07 221.73 399.78 218.67 405.27 216.13 410.75 213.88 416.03 212.35 421.09 211.56 431.24 211.56 440.65 214.9 449.42 221.25 458.52 229.43 467.39 239.76 476.3 251.46 486.08 263.51 496.43 275.97 507.51 288.34 519.75 300.04 532.7 311.39 545.93 322.39 559.32 332.6 571.76 342.74 582.18 352.98 590.52 362.77 595.29 373.04 595.79 383.92 594.89 389.31 592.96 394.91 590.05 400.71 586.63 406.5 582.46 412.51 577.69 418.76 572.86 425.01 567.9 431.34 562.99 437.74 558.49 444.13 554.31 450.58 550.55 457.05 545.21 469.92 541.92 482.69 540.36 494.92 541.09 506.68 542.16 517.36 542.73 526.41 542.86 537.17 531.65 544.69 520.05 541.9 510.81 539.59 500.15 536.91 488.55 534.94 476.59 535.84 464.11 539.15 451.46 545.25 445.12 549.65 438.76 554.63 432.43 560.06 426.09 566.02 419.78 572.1 413.51 578.09 407.24 584 401.16 589.25 395.26 593.65 389.35 597.41 383.61 600.04 378.05 601.45 366.82 601.43 356.15 596.4 345.95 587.16 335.43 575.3 325.16 561.12 315.08 545.94 304.5 530.89 293.96 516.36 283.54 502.88 272.76 490.82 262.3 479.87 252.49 469.81 242.97 460.87 234.68 452.18 228.1 443.35 222.62 434.96 219.3 425.93 218.36 416.06 218.58 408.57 221.89 392.33 224.69 383.57 226.66 377.64 228.83 371.61 231.11 365.5 233.2 359.41 235.31 353.25 237.42 347.08 240.68 334.83 243.78 322.69 246.76 311.02 248.71 299.79 251.05 289.43 254.05 280.36 256.9 272.1 260.95 265.48 266.3 260.76 272.1 256.85 279.34 254.67 287.82 254.05 296.82 253.29 306.89 253.14 317.71 253.04 328.85 251.24 340.5 248.52 352.36 244.67 358.33 241.92 364.32 238.92 370.3 235.75 376.29 232.21 382.25 228.66 388.16 225.22" stroke-dasharray="6 10" transform="rotate(42.73076923076923, 400, 400)" opacity="0.19"></path><path d="M384.29 236.24C395.26 229.62 405.64 224.93 415.41 222.69 425.23 222.17 434.6 224.68 443.6 229.96 452.95 236.98 462.29 246.15 471.81 256.82 482.08 268.08 492.89 279.99 504.26 292.06 516.42 303.78 528.95 315.34 541.36 326.61 553.57 337.29 564.57 347.84 573.46 358.35 580.38 368.47 584.01 378.86 583.87 389.61 581.22 400.24 575.25 411.44 566.66 423.22 557.86 435.01 549 446.85 541.09 458.52 535.52 470.08 531.61 481.24 529.22 491.61 528.94 501.52 529.16 510.19 529.2 517.17 529.27 525.27 520.76 529.76 511.45 527.19 503.94 525.62 494.97 524.07 484.94 523.4 474.55 525.4 463.44 529.53 451.94 535.97 440.37 545.31 428.57 556.09 416.73 567.06 404.89 577.78 393.54 585.52 382.71 589.4 371.8 590.16 361.25 586.48 351.03 578.93 340.56 568.89 330.25 556.4 320.07 542.57 309.55 528.43 299.09 514.31 288.85 500.79 278.44 488.25 268.47 476.57 259.28 465.72 250.51 455.82 243.01 446.32 237.2 436.96 232.45 428.06 229.71 418.83 229.15 409.13 229.58 399.51 231.86 389.2 235.72 378.18 239.5 367.16 243.83 355.99 248.29 344.91 251.67 333.96 254.93 323.31 258.07 313.3 260.2 303.68 262.61 295.02 265.5 287.66 268.08 280.94 271.64 275.73 276.27 272.18 281.16 269.12 287.32 267.46 294.61 266.97 302.31 266.08 311.05 265.53 320.58 264.87 330.38 262.57 340.77 259.41 351.49 255.27 362.31 249.28 373.31 242.71 384.28 236.25" stroke-dasharray="7 6" transform="rotate(46.61538461538462, 400, 400)" opacity="0.23"></path><path d="M382.24 247.27C392.43 240.94 402.28 236.35 411.76 233.93 421.31 232.96 430.65 234.69 439.85 238.96 449.36 244.82 459.02 252.78 468.92 262.29 479.41 272.55 490.33 283.66 501.6 295.14 513.33 306.55 525.12 317.98 536.48 329.23 547.36 340.11 556.89 350.85 564.3 361.46 569.91 371.78 572.55 382.19 571.88 392.74 569.13 403.19 563.53 413.94 555.63 424.97 547.55 436 539.29 446.79 531.69 457.13 526 467.37 521.63 476.96 518.53 485.58 516.38 504.65 508.88 514.85 501.37 512.96 495.31 512.28 487.85 511.87 479.28 512.41 470.38 515.36 460.64 520.13 450.31 526.78 439.9 535.81 429.07 545.91 417.98 556.04 406.9 565.94 396.09 573.25 385.6 577.25 375.05 578.65 364.71 576.16 354.59 570.17 344.29 561.89 334.08 551.15 324 538.86 313.71 525.95 303.55 512.63 293.69 499.52 283.83 486.97 274.52 475 266.08 463.72 258.14 453.17 251.48 443.08 246.46 433.3 242.41 423.93 240.22 414.52 240.02 404.93 240.67 395.45 242.99 385.58 246.75 375.34 250.44 365.1 254.68 354.98 259.1 345.18 262.57 335.47 265.96 326.26 269.26 317.8 271.6 309.66 274.13 302.52 277.01 296.63 281.08 289.13 293.6 281.15 302.52 279.87 309.07 278.71 316.6 277.69 324.94 276.45 333.48 273.67 342.68 270.12 352.31 265.77 362.03 259.82 372.06 253.46 382.24 247.27" stroke-dasharray="6 8" transform="rotate(50.5, 400, 400)" opacity="0.70"></path><path d="M382.28 258.3C391.74 252.29 401.08 247.82 410.27 245.27 419.54 243.92 428.8 244.96 438.07 248.28 447.6 253.02 457.35 259.75 467.33 268.03 477.72 277.13 488.41 287.21 499.22 297.86 510.22 308.64 521.02 319.61 531.13 330.54 540.63 341.28 548.69 351.93 554.71 362.41 559.12 372.71 560.9 382.98 559.81 393.19 557.04 403.34 551.82 413.57 544.6 423.79 537.23 434.02 529.57 443.74 522.35 452.82 516.65 461.79 511.94 469.94 508.28 477.03 504.04 492.25 496.37 500.26 490.16 499.39 485.23 499.65 479.03 500.34 471.73 501.97 464.17 505.71 455.7 510.95 446.51 517.68 437.25 526.32 427.41 535.72 417.14 545.01 406.86 554.11 396.66 560.97 386.62 564.99 376.54 566.9 366.54 565.44 356.67 560.87 346.69 554.26 336.78 545.27 327.01 534.63 317.15 523.16 307.49 510.98 298.22 498.67 289.08 486.56 280.57 474.75 272.97 463.44 265.93 452.63 260.14 442.25 255.9 432.26 252.53 422.61 250.86 413.1 250.98 403.66 251.81 394.33 254.14 384.89 257.79 375.39 261.36 365.88 265.48 356.74 269.82 348.11 273.34 339.55 276.85 331.63 280.29 324.54 284.2 314.74 292.46 300.94 297.72 297.08 303.68 294.16 320.29 290.32 330.83 287.74 338.25 284.53 346.36 280.66 355 276.16 363.68 270.31 372.82 264.19 382.28 258.3" stroke-dasharray="1 10" transform="rotate(54.38461538461538, 400, 400)" opacity="0.64"></path><path d="M384.38 269.32C393.16 263.65 402.01 259.35 410.86 256.72 419.79 255.07 428.83 255.5 437.98 257.94 447.33 261.62 456.9 267.13 466.64 274.15 476.62 281.99 486.75 290.9 496.79 300.48 506.82 310.36 516.43 320.58 525.2 330.88 533.28 341.15 539.93 351.4 544.67 361.5 548.03 371.51 549.09 381.42 547.69 391.15 544.95 400.85 540.12 410.45 533.57 419.83 526.89 429.21 519.85 437.92 513.05 445.83 507.44 453.66 502.55 460.57 498.46 466.42 492.26 478.89 483.64 486.28 478.26 486.62 474.13 487.82 468.9 489.52 462.65 492.08 456.22 496.42 448.88 501.97 440.76 508.64 432.56 516.82 423.7 525.51 414.28 533.98 404.86 542.3 395.36 548.68 385.88 552.65 376.38 554.94 366.88 554.33 357.45 551.03 347.98 545.95 338.56 538.65 329.32 529.69 320.1 519.81 311.13 509.02 302.63 497.83 294.35 486.56 286.74 475.33 280.07 464.4 273.95 453.74 269.03 443.42 265.54 433.51 262.83 423.83 261.63 414.39 262.02 405.21 263 396.11 265.31 387.13 268.82 378.31 272.26 369.49 276.23 361.24 280.45 353.65 284 346.09 287.58 339.26 291.13 333.3 295.34 325 303.85 313.44 308.87 310.04 314.27 307.08 328.87 302.06 338.12 298.7 344.59 295.13 351.76 291.02 359.51 286.43 367.29 280.74 375.61 274.89 384.38 269.32" stroke-dasharray="2 4" transform="rotate(58.26923076923077, 400, 400)" opacity="0.94"></path><path d="M388.32 280.35C396.44 275.04 404.75 270.94 413.18 268.28 421.66 266.4 430.33 266.3 439.14 267.97 448.07 270.67 457.19 275.03 466.39 280.79 475.68 287.34 484.96 294.96 494.01 303.34 502.87 312.09 511.19 321.3 518.58 330.71 525.28 340.21 530.61 349.77 534.21 359.22 536.66 368.67 537.13 377.99 535.52 387.07 532.86 396.16 528.44 405.02 522.54 413.54 516.53 422.07 510.11 429.82 503.78 436.72 498.35 443.56 493.41 449.47 489.06 454.38 481.14 465.14 471.09 473.16 466.13 474.77 462.51 476.84 457.97 479.41 452.54 482.7 447.01 487.47 440.61 493.16 433.45 499.67 426.23 507.33 418.3 515.28 409.76 522.95 401.21 530.49 392.48 536.37 383.69 540.23 374.91 542.77 366.06 542.87 357.26 540.65 348.47 536.95 339.75 531.22 331.24 523.91 322.83 515.68 314.72 506.42 307.12 496.57 299.8 486.47 293.17 476.18 287.46 465.99 282.27 455.89 278.2 446 275.42 436.45 273.3 427.04 272.53 417.92 273.15 409.13 274.24 400.4 276.51 391.92 279.85 383.77 283.13 375.62 286.93 368.16 291 361.43 294.52 354.72 298.14 348.77 301.76 343.66 306.23 336.47 315.11 326.26 320.05 322.95 325.13 319.7 338.3 313.38 346.53 309.31 352.25 305.46 358.63 301.19 365.63 296.6 372.61 291.11 380.19 285.58 388.32 280.35" stroke-dasharray="4 10" transform="rotate(62.15384615384616, 400, 400)" opacity="0.51"></path><path d="M393.62 291.38C401.1 286.44 408.82 282.57 416.7 279.94 424.62 277.91 432.75 277.39 440.99 278.38 449.29 280.21 457.7 283.51 466.09 288.07 474.47 293.34 482.71 299.64 490.58 306.72 498.19 314.21 505.17 322.24 511.2 330.55 516.6 339.03 520.74 347.65 523.35 356.22 525.03 364.85 525.03 373.38 523.3 381.67 520.78 389.97 516.78 398.02 511.5 405.68 506.14 413.34 500.35 420.22 494.52 426.27 489.38 432.29 484.5 437.45 480.03 441.73 470.76 451.65 459.1 461.1 454.28 463.93 450.92 466.74 446.83 470 442.01 473.83 437.14 478.83 431.51 484.51 425.18 490.74 418.81 497.82 411.76 505.04 404.09 511.93 396.42 518.71 388.53 524.07 380.54 527.75 372.57 530.42 364.52 531.06 356.52 529.75 348.57 527.24 340.72 522.95 333.1 517.19 325.63 510.58 318.5 502.91 311.9 494.55 305.6 485.82 299.98 476.74 295.22 467.58 290.94 458.38 287.67 449.25 285.55 440.36 283.97 431.53 283.56 422.95 284.36 414.72 285.53 406.52 287.73 398.63 290.88 391.13 293.98 383.64 297.58 376.88 301.47 370.86 306.71 362.18 316.81 348.56 321.69 343.55 326.07 338.98 336 331.8 341.92 328.5 345.92 325.67 350.51 322.71 355.68 319.54 360.82 315.51 366.57 311.18 372.91 306.66 379.22 301.43 386.14 296.24 393.62 291.38" stroke-dasharray="10 9" transform="rotate(66.03846153846153, 400, 400)" opacity="0.15"></path><path d="M399.66 302.41C406.49 297.87 413.56 294.27 420.78 291.71 428.02 289.6 435.43 288.76 442.9 289.19 450.38 290.27 457.89 292.61 465.28 296.07 472.58 300.13 479.65 305.15 486.26 310.92 492.59 317.09 498.26 323.82 503.03 330.9 507.24 338.19 510.34 345.69 512.11 353.22 513.17 360.83 512.83 368.4 511.06 375.77 508.71 383.17 505.13 390.34 500.47 397.15 495.74 403.95 490.58 410.05 485.29 415.41 478.15 423.07 465.83 434.83 460.69 439.12 456.48 443.15 448.01 450.25 443.15 454.13 439.88 457.51 436.06 461.25 431.66 465.42 427.27 470.48 422.25 476 416.63 481.84 410.99 488.31 404.74 494.78 397.94 500.9 391.14 506.93 384.13 511.76 377.02 515.21 369.94 517.9 362.8 518.94 355.73 518.36 348.74 516.85 341.87 513.8 335.26 509.45 328.82 504.37 322.74 498.27 317.18 491.42 311.91 484.18 307.28 476.48 303.45 468.56 300.02 460.51 297.48 452.4 295.95 444.42 294.85 436.43 294.74 428.61 295.67 421.09 296.87 413.58 298.97 406.36 301.91 399.53 304.81 392.7 308.17 386.56 311.84 381.12 316.92 373.25 327.05 360.69 332.05 355.83 336.62 351.2 346.58 343.19 352.28 339.27 356.07 336.09 360.34 332.81 365.1 329.39 369.8 325.28 375.04 320.98 380.8 316.6 386.54 311.69 392.83 306.88 399.66 302.41" stroke-dasharray="0 7" transform="rotate(69.92307692307692, 400, 400)" opacity="0.08"></path><path d="M405.75 313.43C418.06 305.31 431.16 300.84 444.27 300.38 457.3 301.86 469.93 307.47 480.9 316.16 490.78 326.22 497.77 338.27 500.54 350.94 501.17 363.98 497.38 376.99 489.44 388.94 481.29 400.89 472.01 410.52 462.99 417.84 455.97 425.39 449.24 431.3 442.54 436.17 437.01 442.6 430.32 449.54 422.1 457.42 414.03 467.9 403.96 479.27 392.04 489.87 380.11 500.21 367.6 505.92 355.41 506.52 343.51 504.35 332.4 497.31 323.13 486.95 314.81 475.12 309.03 461.56 306.63 447.79 305.48 433.85 307.6 420.28 312.94 407.98 318.15 395.68 324.84 385.7 332.11 377.96 338.02 369.88 344.55 363.45 351.66 358.27 357.84 351.76 365.34 345.37 374.26 338.83 382.92 330.21 393.43 321.36 405.75 313.43" stroke-dasharray="11 9" transform="rotate(73.8076923076923, 400, 400)" opacity="0.65"></path><path d="M411.16 324.46C422.07 317.19 433.43 312.94 444.55 311.97 455.51 312.34 465.79 316.15 474.36 322.64 482.01 330.21 487.08 339.71 488.66 350.05 488.73 360.74 485.25 371.69 478.41 382.03 471.41 392.37 463.19 401.07 454.88 408.11 447.95 415.44 441.04 421.75 434.17 427.45 428.25 434.43 421.54 441.84 413.84 449.8 406.33 459.55 397.37 469.67 387.06 478.84 376.75 487.82 366.16 493.07 356.03 494.26 346.16 493.49 337.16 488.7 329.89 480.96 323.37 471.98 319.06 461.16 317.59 449.73 317 438.06 319.13 426.38 323.97 415.5 328.71 404.62 334.87 395.5 341.68 388.09 347.5 380.35 353.97 373.76 360.93 368.06 367.14 361.27 374.37 354.55 382.68 347.88 390.73 339.7 400.25 331.58 411.16 324.46" stroke-dasharray="4 5" transform="rotate(77.6923076923077, 400, 400)" opacity="0.27"></path><path d="M415.26 335.49C424.7 329.11 434.25 325.21 443.3 323.92 452.19 323.51 460.23 325.85 466.63 330.44 472.33 335.82 475.83 342.96 476.53 351.09 476.23 359.49 473.15 368.42 467.37 377.22 461.49 386.02 454.4 393.84 446.98 400.62 440.45 407.65 433.73 414.17 427 420.34 420.96 427.44 414.4 434.87 407.25 442.49 400.29 451.26 392.36 460.04 383.6 467.82 374.84 475.45 366.11 480.13 357.98 481.65 350.04 481.86 343.02 478.88 337.56 473.39 332.63 466.96 329.57 458.73 328.83 449.64 328.66 440.31 330.7 430.6 335 421.2 339.22 411.8 344.75 403.55 350.96 396.48 356.5 389.14 362.69 382.54 369.32 376.55 375.4 369.76 382.28 363.04 389.9 356.54 397.33 349.02 405.82 341.74 415.26 335.49" stroke-dasharray="0 2" transform="rotate(81.57692307692308, 400, 400)" opacity="0.47"></path><path d="M417.58 346.52C425.49 341.09 433.19 337.64 440.25 336.22 450.17 335.94 462.94 345.74 464.19 354.42 463.7 360.73 461.08 367.77 456.34 375.08 451.54 382.39 445.62 389.28 439.25 395.64 433.4 402.19 427.22 408.56 420.95 414.75 415.15 421.54 408.98 428.51 402.52 435.43 396.2 443.02 389.33 450.39 382.05 456.79 374.78 463.09 367.81 467.1 361.52 468.72 352.73 468.73 341.58 456.99 340.34 447.12 340.45 440.02 342.33 432.29 346.03 424.42 349.68 416.55 354.48 409.27 359.95 402.71 365 395.95 370.69 389.6 376.77 383.67 382.49 377.21 388.81 370.85 395.62 364.81 402.3 358.15 409.67 351.85 417.58 346.52" stroke-dasharray="0 8" transform="rotate(85.46153846153847, 400, 400)" opacity="0.97"></path><path d="M417.84 357.54C435.94 347.67 452.8 359.45 445.31 375.85 437.87 387.56 427.06 399.48 415.9 410.51 405.78 422.91 394.26 435.78 382.61 445.76 366.11 456.68 350.98 442.69 357.06 424.79 362.96 412.18 372.52 400.01 383.25 389.42 393.18 377.63 405.18 366.07 417.84 357.54" stroke-dasharray="5 9" transform="rotate(89.34615384615384, 400, 400)" opacity="0.43"></path><path d="M416.02 368.57C429.21 360.79 439.99 367.48 434.28 379.45 428.79 388.27 420.48 398.09 411.64 407.41 403.28 417.34 393.99 427.31 385.2 434.74 373.04 443.13 363.2 435.18 368.1 422.25 372.71 412.83 380.27 402.88 388.81 393.89 396.99 384.36 406.56 375.17 416.02 368.57" stroke-dasharray="2 1" transform="rotate(93.23076923076924, 400, 400)" opacity="0.39"></path><path d="M412.32 379.6C424.82 370.54 430.17 373.55 423.25 385.45 416.16 397.33 401.37 414.04 389.52 423.71 377.66 433.14 372.74 429.57 379.13 417.11 385.36 404.63 399.8 388.43 412.32 379.6" stroke-dasharray="8 1" transform="rotate(97.11538461538461, 400, 400)" opacity="0.75"></path></g></svg>